<?xml version="1.0" encoding="utf-8"?>
<!-- Generator: Adobe Illustrator 26.2.1, SVG Export Plug-In . SVG Version: 6.00 Build 0)  -->
<svg version="1.1" id="Layer_1" xmlns="http://www.w3.org/2000/svg" xmlns:xlink="http://www.w3.org/1999/xlink" x="0px" y="0px"
	 viewBox="0 0 512 512" style="enable-background:new 0 0 512 512;" xml:space="preserve">
<style type="text/css">
	.st0{fill:#E74C3C;}
</style>
<path class="st0" d="M255.1,128c14.2,0,24.9,10.7,24.9,24v112c0,13.3-10.7,24-24.9,24c-12.4,0-24-10.7-24-24V152
	C231.1,138.7,242.7,128,255.1,128z M288,352c0,17.7-14.3,32-32.9,32c-16.8,0-32-14.3-32-32s15.2-32,32-32
	C273.7,320,288,334.3,288,352z M16,218.6l92.5-152c13-21.5,36.4-34.6,60.6-34.6H342c25.1,0,48.5,13.1,61.5,34.6l92.5,152
	c14,23,14,51.8,0,74.8l-92.5,152c-13,21.5-36.4,34.6-61.5,34.6H169.1c-24.2,0-47.6-13.1-60.6-34.6L16,293.4
	C2,270.4,2,241.6,16,218.6L16,218.6z M57,243.5c-4.7,7.7-4.7,17.3,0,25l92.5,152c4.3,7.1,12.1,11.5,19.6,11.5H342
	c8.4,0,16.2-4.4,20.5-11.5l92.5-152c4.7-7.7,4.7-17.3,0-25l-92.5-152C358.2,84.4,350.4,80,342,80H169.1c-7.5,0-15.3,4.4-19.6,11.5
	L57,243.5z M403.5,66.6l-41,25L403.5,66.6z M16,293.4l41-24.9L16,293.4z"/>
</svg>
