<?xml version="1.0" encoding="UTF-8"?><svg id="a" xmlns="http://www.w3.org/2000/svg" viewBox="0 0 600 112"><defs><style>.b{fill:#f58220;}.c{fill:#949494;}</style></defs><g><g><path class="c" d="M452.05,71.08c10.14-12.95,16.65-19.39,16.65-25.64,0-3.06-1.4-4.85-3.76-4.85-2.68,0-3.89,2.11-3.89,5.55v.96h-8.8v-1.21c0-7.02,4.85-12.44,12.82-12.44,7.02,0,12.57,4.53,12.57,12.12,0,8.04-6.51,15.5-14.86,25.2h14.93v8.04h-25.65v-7.72Z"/><path class="c" d="M490.77,44.36l-10.21,2.17-.96-5.68c3.06-1.15,10.72-4.4,11.61-7.08h8.61v45.04h-9.06V44.36Z"/></g><g><g><path class="b" d="M0,33.68H26.99c15.97,0,26.11,9.14,26.11,24.34s-10.13,24.23-26.11,24.23H15.42v29.19H0V33.68Zm25.99,34.7c6.83,0,11.24-3.74,11.24-10.46s-4.41-10.35-11.24-10.35H15.42v20.82h10.57Z"/><path class="b" d="M60.8,33.68h15.42V111.45h-15.42V33.68Z"/><path class="b" d="M89.43,33.68h17.18l22.03,49.02V33.68h14.65V111.45h-17.07l-22.14-49.46v49.46h-14.65V33.68Z"/><path class="b" d="M156.51,33.68h17.18l22.03,49.02V33.68h14.65V111.45h-17.07l-22.14-49.46v49.46h-14.65V33.68Z"/><path class="b" d="M281.85,58.91c0-15.75,10.46-25.78,25.89-25.78s25.88,10.13,25.88,25.78v1.43h-15.64c0-9.03-3.74-13.33-10.24-13.33s-10.14,4.41-10.14,13.44v24.34c0,8.93,3.64,13.33,10.14,13.33s10.24-4.3,10.24-13.22h15.64v1.32c0,15.64-10.46,25.78-25.88,25.78s-25.89-10.03-25.89-25.67v-27.43Z"/><path class="b" d="M342.97,33.68h15.42v63.12h28.42v14.65h-43.84V33.68Z"/><path class="b" d="M394.52,33.69h43.73v14.87h-28.31v15.42h18.4v14.87h-18.4v17.84h28.64v14.76h-44.06V33.69Z"/><path class="b" d="M238.89,33.68h18.07l19.94,77.77h-16.52l-2.75-12.56h-21.59l-3.08,12.56h-15.97l21.92-77.77Zm15.86,52.1l-7.27-33.71-8.26,33.71h15.53Z"/></g><polygon class="b" points="248.33 .02 239.79 30.37 256.11 30.37 248.33 .02"/></g></g><g><path class="c" d="M452.04,90.57h6.9c4.26,0,6.67,1.88,6.67,5.49,0,1.76-1.09,3.38-2.73,4.38,1.91,.94,3.17,2.53,3.17,4.55,0,4.17-2.7,6.32-6.96,6.32h-7.05v-20.74Zm6.64,8.46c1.82,0,2.85-.94,2.85-2.44s-1.03-2.44-2.85-2.44h-2.53v4.88h2.53Zm.15,8.69c1.82,0,3-1.17,3-2.82s-1.17-2.85-3-2.85h-2.67v5.67h2.67Z"/><path class="c" d="M472.28,104.17l-5.26-13.6h4.46l2.85,8.14,3-8.14h4.44l-5.38,13.6v7.14h-4.11v-7.14Z"/><path class="c" d="M489.55,97.3c0-4.2,2.79-6.87,6.9-6.87s6.9,2.7,6.9,6.87v.38h-4.17c0-2.41-1-3.55-2.73-3.55s-2.7,1.17-2.7,3.58v6.49c0,2.38,.97,3.55,2.7,3.55s2.73-1.15,2.73-3.53h4.17v.35c0,4.17-2.79,6.87-6.9,6.87s-6.9-2.67-6.9-6.84v-7.31Z"/><path class="c" d="M506.58,90.57h11.66v3.97h-7.55v4.11h4.91v3.97h-4.91v4.76h7.64v3.94h-11.75v-20.74Z"/><path class="c" d="M521.41,90.57h6.9c4.26,0,6.79,2.03,6.79,5.64,0,2.32-1.17,4.2-3.08,5.29l4.08,9.81h-4.7l-3.35-8.87h-2.53v8.87h-4.11v-20.74Zm6.64,8.46c1.82,0,2.85-.94,2.85-2.44s-1.03-2.44-2.85-2.44h-2.53v4.88h2.53Z"/><path class="c" d="M541.5,94.42h-4.52v-3.85h13.16v3.85h-4.52v16.89h-4.11v-16.89Z"/><path class="c" d="M555.53,90.57h4.82l5.32,20.74h-4.41l-.73-3.35h-5.76l-.82,3.35h-4.26l5.85-20.74Zm4.23,13.89l-1.94-8.99-2.2,8.99h4.14Z"/><path class="c" d="M568.16,90.57h6.9c4.26,0,6.79,2.03,6.79,5.64,0,2.32-1.17,4.2-3.08,5.29l4.08,9.81h-4.7l-3.35-8.87h-2.53v8.87h-4.11v-20.74Zm6.64,8.46c1.82,0,2.85-.94,2.85-2.44s-1.03-2.44-2.85-2.44h-2.53v4.88h2.53Z"/><path class="c" d="M589.57,90.57h4.82l5.32,20.74h-4.41l-.73-3.35h-5.76l-.82,3.35h-4.26l5.85-20.74Zm4.23,13.89l-1.94-8.99-2.2,8.99h4.14Z"/></g></svg>