<?xml version="1.0" encoding="utf-8"?>
<!-- Generator: Adobe Illustrator 26.2.1, SVG Export Plug-In . SVG Version: 6.00 Build 0)  -->
<svg version="1.1" id="Layer_1" xmlns="http://www.w3.org/2000/svg" xmlns:xlink="http://www.w3.org/1999/xlink" x="0px" y="0px"
	 viewBox="0 0 448 512" style="enable-background:new 0 0 448 512;" xml:space="preserve">
<style type="text/css">
	.st0{fill:#2D98DA;}
</style>
<path class="st0" d="M384,32H64C28.6,32,0,60.7,0,96v320c0,35.3,28.6,64,64,64h320c35.4,0,64-28.7,64-64V96
	C448,60.7,419.3,32,384,32z M400,416c0,8.8-7.2,16-16,16H64c-8.8,0-16-7.2-16-16V96c0-8.8,7.2-16,16-16h320c8.8,0,16,7.2,16,16V416z
	 M264,336h-16v-88c0-13.2-10.7-24-24-24h-32c-13.2,0-24,10.8-24,24c0,13.2,10.8,24,24,24h8v64h-16c-13.2,0-24,10.8-24,24
	s10.8,24,24,24h80c13.2,0,24-10.8,24-24S277.3,336,264,336z M224,192c17.7,0,32-14.3,32-32s-14.3-32-32-32s-32,14.3-32,32
	S206.3,192,224,192z"/>
</svg>
