<?xml version="1.0" encoding="utf-8"?>
<!-- Generator: Adobe Illustrator 26.2.1, SVG Export Plug-In . SVG Version: 6.00 Build 0)  -->
<svg version="1.1" id="Layer_1" xmlns="http://www.w3.org/2000/svg" xmlns:xlink="http://www.w3.org/1999/xlink" x="0px" y="0px"
	 viewBox="0 0 512 512" style="enable-background:new 0 0 512 512;" xml:space="preserve">
<style type="text/css">
	.st0{fill:#F39C12;}
</style>
<path class="st0" d="M506.3,417L293,53c-8.2-14-22.6-21-37-21s-28.8,7-37.9,21L4.9,417c-15.5,27.9,5,63,37.8,63h426.6
	C502.1,480,522.6,445,506.3,417z M52.6,432L255.1,84.8L459.4,432H52.6z M256,337.1c-17.4,0-31.4,14.1-31.4,31.4S238.7,400,256,400
	s31.4-14.1,31.4-31.4C287.4,351.2,273.4,337.1,256,337.1z M232,184v96c0,13.3,10.8,24,24,24c13.2,0,24-10.8,24-24v-96
	c0-13.2-10.7-24-24-24S232,170.8,232,184z"/>
</svg>
